<svg width="110" height="24" viewBox="0 0 110 24" fill="none" xmlns="http://www.w3.org/2000/svg">
<g clip-path="url(#clip0_70_7)">
<path d="M5.91565 0H18.0891C21.2344 0 23.8031 2.57344 23.8031 5.71875V18.2859C23.8031 21.4313 21.2297 24 18.0891 24H5.91565C2.77034 24 0.196899 21.4266 0.196899 18.2859V5.71875C0.196899 2.57344 2.77034 0 5.91565 0Z" fill="#4678F3"/>
<path fill-rule="evenodd" clip-rule="evenodd" d="M10.2188 11.1797L9.4219 9.45001L8.62502 11.1797H10.2188ZM9.4969 8.85939C9.53909 8.87814 9.56721 8.91095 9.58596 8.94845L11.2266 12.4969C11.2688 12.5859 11.2313 12.6938 11.1375 12.7359C11.0485 12.7781 10.9406 12.7359 10.8985 12.6469L10.3875 11.5406H8.46096L7.95002 12.6469C7.90784 12.7359 7.80471 12.7734 7.71096 12.7359C7.6219 12.6938 7.5844 12.5859 7.6219 12.4969L9.26252 8.94845C9.30002 8.8547 9.40315 8.8172 9.4969 8.85939ZM10.8985 17.9156L13.0031 15.9047C13.05 15.8672 13.0735 15.8063 13.0688 15.7453L12.3047 9.6047L11.9953 7.12032L11.9297 6.60001C11.8969 6.33751 11.7844 6.09845 11.6156 5.92501C11.4469 5.75626 11.2266 5.65314 10.9641 5.65314H6.74534C6.47815 5.65314 6.23909 5.76095 6.06096 5.93907C5.88752 6.11251 5.77502 6.35626 5.77502 6.62345V14.9813C5.77502 15.2484 5.88284 15.4922 6.06096 15.6656C6.2344 15.8391 6.47815 15.9516 6.74534 15.9516H10.0172V17.1141C10.0172 17.4563 10.1578 17.7703 10.3828 17.9953C10.6078 18.2203 10.9219 18.3609 11.2641 18.3609H16.9875C17.3297 18.3609 17.6438 18.2203 17.8688 17.9953C18.0938 17.7703 18.2344 17.4563 18.2344 17.1141V9.00001C18.2344 8.65782 18.0938 8.34376 17.8688 8.11876C17.6438 7.89376 17.3297 7.75314 16.9875 7.75314H12.4406L12.4875 8.11408H16.9922C17.236 8.11408 17.4563 8.21251 17.6203 8.37657C17.7797 8.54064 17.8828 8.76095 17.8828 9.0047V17.1094C17.8828 17.3531 17.7844 17.5734 17.6203 17.7375C17.461 17.8969 17.236 18 16.9922 18H11.2594C11.1281 17.9906 11.0063 17.9625 10.8985 17.9156ZM13.5375 11.9766C13.4391 11.9766 13.3594 11.8969 13.3594 11.7984C13.3594 11.7 13.4391 11.6156 13.5375 11.6156H14.9953V11.2781C14.9953 11.1797 15.075 11.1 15.1735 11.1C15.2719 11.1 15.3563 11.1797 15.3563 11.2781V11.6156H16.8141C16.9125 11.6156 16.9969 11.6953 16.9969 11.7984C16.9969 11.9016 16.9172 11.9766 16.8141 11.9766H16.2094C16.2094 12 16.2047 12.0281 16.2047 12.0516C16.2 12.1313 16.1907 12.2156 16.1813 12.3047C16.0875 13.0266 15.7969 13.6828 15.3985 14.1656C15.7172 14.4703 16.0875 14.6484 16.4625 14.6484C16.561 14.6484 16.6406 14.7281 16.6406 14.8313C16.6406 14.9297 16.561 15.0094 16.4625 15.0094C15.9938 15.0094 15.5391 14.7938 15.1547 14.4281C14.7703 14.7938 14.3156 15.0094 13.8469 15.0094C13.7485 15.0094 13.6688 14.9297 13.6688 14.8313C13.6688 14.7328 13.7485 14.6484 13.8469 14.6484C14.2219 14.6484 14.5922 14.4703 14.911 14.1656C14.5688 13.7531 14.311 13.2141 14.1844 12.6188C14.161 12.5203 14.2266 12.4266 14.3203 12.4031C14.4188 12.3844 14.5125 12.4453 14.5313 12.5438C14.6438 13.0641 14.8641 13.5328 15.15 13.8984C15.4922 13.4672 15.736 12.8953 15.8203 12.2625C15.8297 12.1875 15.8344 12.1125 15.8438 12.0375C15.8438 12.0188 15.8485 12 15.8485 11.9813H15.1781H13.5375V11.9766Z" fill="white"/>
</g>
<path d="M35.164 17.076C34.996 17.124 34.836 17.148 34.684 17.148C34.532 17.156 34.376 17.164 34.216 17.172C34.064 17.18 33.852 17.184 33.58 17.184C33.308 17.184 32.9 17.176 32.356 17.16C32.228 17.168 32.1 17.172 31.972 17.172C31.844 17.172 31.724 17.148 31.612 17.1C31.364 16.996 31.196 16.756 31.108 16.38C31.068 16.204 31.024 16.08 30.976 16.008C30.92 15.936 30.876 15.868 30.844 15.804C30.764 15.676 30.772 15.464 30.868 15.168C30.956 14.872 31.072 14.508 31.216 14.076C31.36 13.636 31.524 13.172 31.708 12.684C32.14 11.524 32.528 10.604 32.872 9.924C33.008 9.62 33.124 9.356 33.22 9.132C33.324 8.908 33.416 8.716 33.496 8.556C33.576 8.388 33.616 8.3 33.616 8.292C33.696 7.988 34.004 7.732 34.54 7.524C35.06 7.308 35.532 7.252 35.956 7.356C36.428 7.476 36.636 7.788 36.58 8.292C36.468 8.788 36.3 9.284 36.076 9.78C35.86 10.276 35.612 10.796 35.332 11.34C35.052 11.884 34.748 12.46 34.42 13.068C34.092 13.676 33.768 14.336 33.448 15.048C33.44 15.08 33.456 15.108 33.496 15.132C33.6 15.124 33.744 15.092 33.928 15.036C34.12 14.98 34.316 14.932 34.516 14.892C34.724 14.844 34.928 14.82 35.128 14.82C35.328 14.82 35.496 14.872 35.632 14.976C35.624 15.12 35.66 15.236 35.74 15.324C35.82 15.404 35.9 15.484 35.98 15.564C36.18 15.772 36.196 16.048 36.028 16.392C35.868 16.728 35.58 16.956 35.164 17.076ZM42.0976 11.352L42.1456 11.364C42.1616 11.364 42.1696 11.368 42.1696 11.376C42.3776 11.296 42.5496 11.356 42.6856 11.556C42.7736 11.692 42.8416 11.9 42.8896 12.18C42.9056 12.564 42.8656 13.096 42.7696 13.776C42.5856 15.152 42.4856 15.972 42.4696 16.236C42.4856 16.516 42.3136 16.708 41.9536 16.812C41.6416 16.908 41.3296 16.904 41.0176 16.8C40.6896 16.688 40.5536 16.516 40.6096 16.284C40.5456 16.404 40.4816 16.488 40.4176 16.536C40.3536 16.592 40.2256 16.664 40.0336 16.752C39.8496 16.848 39.5856 16.924 39.2416 16.98C38.8976 17.044 38.5536 17.06 38.2096 17.028C37.8656 17.004 37.5496 16.92 37.2616 16.776C36.9816 16.64 36.7936 16.424 36.6976 16.128C36.5136 15.552 36.5376 14.82 36.7696 13.932C36.9296 13.348 37.2176 12.832 37.6336 12.384C38.1136 11.872 38.6576 11.448 39.2656 11.112C39.7216 10.864 40.1616 10.716 40.5856 10.668C40.7296 10.652 40.8536 10.656 40.9576 10.68C41.0696 10.704 41.1856 10.728 41.3056 10.752C41.4336 10.776 41.5536 10.812 41.6656 10.86C41.9536 10.98 42.0976 11.144 42.0976 11.352ZM39.8776 14.532C39.9336 14.42 39.9776 14.28 40.0096 14.112C40.0496 13.944 40.1016 13.76 40.1656 13.56C39.5176 13.824 39.0216 14.148 38.6776 14.532C38.3016 14.956 38.3256 15.248 38.7496 15.408C39.1176 15.504 39.3856 15.444 39.5536 15.228C39.6256 15.132 39.6896 15.012 39.7456 14.868C39.8016 14.724 39.8696 14.576 39.9496 14.424C39.9256 14.464 39.9016 14.5 39.8776 14.532ZM45.0392 11.304C45.5752 11.088 45.9352 11.084 46.1192 11.292C46.2152 11.404 46.2632 11.56 46.2632 11.76V11.82C46.5592 11.476 47.0752 11.188 47.8112 10.956C48.5872 10.716 49.2272 10.648 49.7312 10.752C50.3872 10.888 50.7552 11.316 50.8352 12.036C50.8992 12.644 50.7592 13.416 50.4152 14.352C50.3032 14.592 50.2152 14.788 50.1512 14.94C50.0952 15.084 50.0432 15.216 49.9952 15.336C49.8912 15.56 49.7272 15.828 49.5032 16.14C49.3752 16.38 49.1752 16.564 48.9032 16.692C48.6392 16.82 48.3752 16.892 48.1112 16.908C47.8552 16.932 47.6432 16.892 47.4752 16.788C47.3072 16.692 47.2592 16.536 47.3312 16.32C47.5152 15.824 47.6672 15.372 47.7872 14.964C47.9072 14.556 48.0312 14.208 48.1592 13.92C48.2792 13.512 48.2952 13.256 48.2072 13.152C48.1352 13.072 48.0112 13.084 47.8352 13.188C47.6832 13.284 47.5752 13.396 47.5112 13.524C47.3672 13.628 47.0952 14.044 46.6952 14.772C46.5832 14.972 46.4712 15.172 46.3592 15.372C46.2552 15.564 46.1552 15.744 46.0592 15.912C45.9712 16.08 45.8912 16.22 45.8192 16.332C45.7552 16.444 45.6952 16.516 45.6392 16.548C45.5912 16.588 45.5472 16.612 45.5072 16.62C45.4752 16.636 45.4472 16.652 45.4232 16.668C45.3992 16.684 45.3792 16.736 45.3632 16.824C45.3312 17.008 45.1392 17.144 44.7872 17.232C44.2192 17.376 43.7072 17.352 43.2512 17.16C43.0992 17.096 42.9792 17.008 42.8912 16.896C42.7072 16.528 43.0232 15.276 43.8392 13.14C44.1272 12.388 44.3152 11.94 44.4032 11.796C44.6032 11.492 44.7312 11.32 44.7872 11.28C44.8512 11.24 44.9352 11.248 45.0392 11.304ZM55.9033 11.712C56.0393 11.464 56.2193 11.34 56.4433 11.34C56.7873 11.532 57.0033 11.844 57.0913 12.276C57.1793 12.708 57.0833 13.096 56.8033 13.44C56.7953 13.448 56.7993 13.516 56.8153 13.644C56.9593 14.444 56.9073 15.276 56.6593 16.14C56.5713 16.428 56.4673 16.696 56.3473 16.944C56.2353 17.192 56.0913 17.504 55.9153 17.88C55.7473 18.256 55.5073 18.628 55.1953 18.996C54.8833 19.364 54.5313 19.656 54.1393 19.872C53.3153 20.336 52.3953 20.436 51.3793 20.172C51.0113 20.028 50.7553 19.86 50.6113 19.668C50.4273 19.436 50.3633 19.188 50.4193 18.924C50.4753 18.596 50.6673 18.416 50.9953 18.384C51.1553 18.368 51.3553 18.428 51.5953 18.564C51.8673 18.62 52.0873 18.616 52.2553 18.552C52.4233 18.488 52.5553 18.428 52.6513 18.372C52.7553 18.324 52.8833 18.26 53.0353 18.18C53.2993 18.044 53.5993 17.732 53.9353 17.244C54.1193 16.988 54.3033 16.644 54.4873 16.212C54.1913 16.588 53.7193 16.772 53.0713 16.764C52.8873 16.756 52.6793 16.748 52.4473 16.74C52.2233 16.732 52.0193 16.656 51.8353 16.512C51.6513 16.368 51.5033 16.18 51.3913 15.948C51.2793 15.716 51.2033 15.452 51.1633 15.156C51.1313 14.852 51.1313 14.544 51.1633 14.232C51.2913 13.144 51.7473 12.284 52.5313 11.652C53.0673 11.212 53.6433 10.976 54.2593 10.944C54.5553 10.928 54.8353 10.96 55.0993 11.04C55.4193 11.16 55.6873 11.384 55.9033 11.712ZM54.4393 14.436C54.4393 14.412 54.4433 14.392 54.4513 14.376C54.4113 14.36 54.3713 14.348 54.3313 14.34C54.2913 14.324 54.2193 14.3 54.1153 14.268C54.0113 14.236 53.8713 14.256 53.6953 14.328C53.5193 14.392 53.3633 14.484 53.2273 14.604C53.0993 14.716 52.9953 14.836 52.9153 14.964C52.8433 15.092 52.8313 15.2 52.8793 15.288C52.9353 15.376 53.0313 15.412 53.1673 15.396C53.3033 15.372 53.4513 15.312 53.6113 15.216C53.9633 15 54.2393 14.74 54.4393 14.436ZM64.0032 8.364C64.2752 8.508 64.4472 8.72 64.5192 9C64.3592 9.896 64.2152 10.788 64.0872 11.676C63.9592 12.556 63.8352 13.296 63.7152 13.896C63.5952 14.488 63.5112 14.932 63.4632 15.228C63.4232 15.524 63.3752 15.82 63.3192 16.116L63.2472 16.368C63.2312 16.456 63.2152 16.536 63.1992 16.608C63.1832 16.688 63.1672 16.772 63.1512 16.86C62.9272 17.116 62.6232 17.244 62.2392 17.244C61.8312 17.244 61.5072 17.14 61.2672 16.932C61.1232 16.82 61.0992 16.584 61.1952 16.224C61.2352 16.08 61.2592 15.896 61.2672 15.672C61.2832 15.44 61.2992 15.248 61.3152 15.096V15.072C61.0752 15.16 60.8592 15.276 60.6672 15.42C60.4752 15.556 60.3552 15.644 60.3072 15.684C60.2592 15.716 60.1952 15.744 60.1152 15.768C60.0352 15.784 59.9632 15.796 59.8992 15.804C59.7472 15.812 59.6432 15.836 59.5872 15.876C59.1232 16.708 58.7072 17.172 58.3392 17.268C58.1072 17.34 57.8752 17.356 57.6432 17.316C57.4112 17.284 57.2272 17.148 57.0912 16.908C56.8352 16.668 56.8992 16.012 57.2832 14.94C57.4912 14.372 57.7872 13.692 58.1712 12.9C58.5632 12.1 58.9392 11.404 59.2992 10.812C60.0752 9.54 60.9272 8.468 61.8552 7.596C62.0072 7.532 62.1712 7.46 62.3472 7.38C62.5232 7.292 62.6952 7.244 62.8632 7.236C63.0392 7.228 63.2192 7.248 63.4032 7.296C63.5872 7.344 63.7432 7.416 63.8712 7.512C64.1672 7.736 64.2112 8.02 64.0032 8.364ZM61.4352 11.52C61.2672 12 61.0992 12.444 60.9312 12.852C60.7632 13.252 60.6192 13.604 60.4992 13.908L61.4472 13.872C61.5112 13.36 61.5832 12.852 61.6632 12.348C61.7432 11.844 61.8192 11.34 61.8912 10.836L61.4352 11.52ZM61.1112 13.92C61.2232 13.92 61.3352 13.912 61.4472 13.896V13.884C61.3432 13.892 61.2472 13.9 61.1592 13.908C61.0712 13.916 61.0552 13.92 61.1112 13.92ZM65.7006 11.232C65.9246 11.016 66.1726 10.892 66.4446 10.86C66.7246 10.82 66.9686 10.848 67.1766 10.944C67.3926 11.04 67.5486 11.196 67.6446 11.412C67.7486 11.62 67.7366 11.86 67.6086 12.132C67.3366 12.532 67.1206 12.964 66.9606 13.428C66.8006 13.892 66.6526 14.36 66.5166 14.832C67.2526 14.368 67.8686 13.676 68.3646 12.756C68.5086 12.484 68.6646 12.208 68.8326 11.928L69.0126 11.592L69.3726 11.016C69.4206 10.864 69.5046 10.768 69.6246 10.728C69.7446 10.68 69.8726 10.656 70.0086 10.656C70.1526 10.656 70.2966 10.66 70.4406 10.668C70.5846 10.668 70.7166 10.628 70.8366 10.548C70.9566 10.468 71.0966 10.44 71.2566 10.464C71.4246 10.48 71.5726 10.532 71.7006 10.62C71.8366 10.708 71.9366 10.816 72.0006 10.944C72.0726 11.064 72.0806 11.184 72.0246 11.304C71.6886 12.024 71.2286 13.364 70.6446 15.324C70.5086 15.764 70.3806 16.132 70.2606 16.428C70.0606 16.676 69.8086 16.844 69.5046 16.932C69.2006 17.02 68.9126 17.044 68.6406 17.004C68.3766 16.972 68.1646 16.88 68.0046 16.728C67.8446 16.584 67.8086 16.4 67.8966 16.176C67.6726 16.36 67.4406 16.528 67.2006 16.68C66.9606 16.832 66.6686 16.932 66.3246 16.98C65.9886 17.028 65.6646 17.012 65.3526 16.932C65.0406 16.86 64.7726 16.716 64.5486 16.5C64.3326 16.284 64.2166 15.996 64.2006 15.636C64.1526 14.372 64.6526 12.904 65.7006 11.232ZM74.67 7.524L74.682 7.476L74.79 7.368C74.878 7.16 74.974 7.036 75.078 6.996C75.134 6.98 75.206 6.96 75.294 6.936C75.382 6.912 75.498 6.852 75.642 6.756C75.698 6.644 75.814 6.596 75.99 6.612C76.166 6.62 76.338 6.676 76.506 6.78C76.682 6.876 76.822 7.012 76.926 7.188C77.038 7.364 77.066 7.548 77.01 7.74C76.954 7.924 76.906 8.064 76.866 8.16C76.834 8.248 76.798 8.332 76.758 8.412C76.726 8.492 76.682 8.584 76.626 8.688C76.578 8.784 76.514 8.916 76.434 9.084L76.038 9.912C75.998 10.016 75.962 10.076 75.93 10.092C75.906 10.108 75.882 10.136 75.858 10.176C75.93 10.16 75.99 10.148 76.038 10.14C76.086 10.132 76.134 10.124 76.182 10.116C76.294 10.1 76.422 10.084 76.566 10.068C76.654 10.084 76.73 10.092 76.794 10.092H76.962C77.058 10.092 77.174 10.12 77.31 10.176C77.446 10.224 77.534 10.312 77.574 10.44C77.614 10.568 77.618 10.7 77.586 10.836C77.554 10.964 77.49 11.084 77.394 11.196C77.298 11.308 77.174 11.368 77.022 11.376C76.326 11.568 75.83 11.672 75.534 11.688L75.462 11.772V11.784C75.382 11.976 75.294 12.22 75.198 12.516C75.11 12.804 75.01 13.12 74.898 13.464C74.794 13.8 74.686 14.152 74.574 14.52C74.462 14.88 74.346 15.228 74.226 15.564C73.842 16.692 73.562 17.304 73.386 17.4C73.322 17.432 73.254 17.452 73.182 17.46C73.118 17.476 73.082 17.488 73.074 17.496C72.794 17.48 72.562 17.424 72.378 17.328C72.194 17.232 72.07 17.14 72.006 17.052C71.942 16.964 71.926 16.864 71.958 16.752C72.11 15.36 72.414 13.836 72.87 12.18C72.71 12.18 72.598 12.196 72.534 12.228C72.414 12.292 72.27 12.328 72.102 12.336H72.09C71.962 12.328 71.846 12.268 71.742 12.156C71.638 12.044 71.574 11.916 71.55 11.772C71.526 11.628 71.55 11.48 71.622 11.328C71.694 11.176 71.838 11.056 72.054 10.968C72.31 10.896 72.498 10.836 72.618 10.788C72.85 10.692 73.042 10.624 73.194 10.584C73.354 10.544 73.442 10.52 73.458 10.512C73.482 10.496 73.498 10.484 73.506 10.476C73.53 10.46 73.59 10.452 73.686 10.452C73.734 10.22 73.782 9.984 73.83 9.744C73.878 9.504 73.938 9.26 74.01 9.012C74.17 8.436 74.39 7.94 74.67 7.524ZM78.3245 11.376C78.4925 11.256 78.7005 11.228 78.9485 11.292C78.9965 11.3 79.0445 11.304 79.0925 11.304C79.2685 10.944 79.5725 10.756 80.0045 10.74C80.1165 10.732 80.2725 10.712 80.4725 10.68C80.6725 10.648 80.9125 10.656 81.1925 10.704C81.4805 10.752 81.7325 10.836 81.9485 10.956C82.4205 11.212 82.7045 11.58 82.8005 12.06C82.9925 12.764 82.9645 13.532 82.7165 14.364C82.4525 15.284 82.0045 16.02 81.3725 16.572C81.0845 16.828 80.7805 16.988 80.4605 17.052C80.1405 17.124 79.8525 17.164 79.5965 17.172C79.3405 17.18 79.1045 17.18 78.8885 17.172C78.6805 17.172 78.4765 17.152 78.2765 17.112C77.8445 17.024 77.4885 16.82 77.2085 16.5C76.8805 16.14 76.7405 15.58 76.7885 14.82C76.8205 14.148 76.9885 13.472 77.2925 12.792C77.6045 12.104 77.9485 11.632 78.3245 11.376ZM80.4365 13.788C80.2365 13.852 80.0485 13.88 79.8725 13.872C79.7845 13.96 79.7045 14.056 79.6325 14.16C79.5685 14.256 79.4805 14.348 79.3685 14.436C79.2565 14.516 79.2005 14.548 79.2005 14.532C79.0645 14.724 78.9525 14.924 78.8645 15.132C78.7765 15.332 78.7765 15.536 78.8645 15.744C79.1845 15.776 79.4205 15.768 79.5725 15.72C79.7245 15.672 79.8645 15.58 79.9925 15.444C80.1285 15.308 80.2325 15.148 80.3045 14.964C80.4485 14.62 80.4925 14.228 80.4365 13.788ZM84.6055 11.28C84.6215 11.128 84.7175 11.004 84.8935 10.908C85.0695 10.812 85.2655 10.764 85.4815 10.764C85.6975 10.764 85.9055 10.816 86.1055 10.92C86.3135 11.016 86.4535 11.184 86.5255 11.424C87.2055 10.832 87.8255 10.604 88.3855 10.74C88.5775 10.78 88.7415 10.892 88.8775 11.076C89.2855 10.684 89.7375 10.428 90.2335 10.308C90.8575 10.284 91.3055 10.428 91.5775 10.74C91.6175 10.78 91.6575 10.824 91.6975 10.872C91.8095 10.992 91.8735 11.072 91.8895 11.112C92.0335 11.336 92.0735 11.852 92.0095 12.66C91.9215 13.708 91.7215 14.76 91.4095 15.816C91.2415 16.352 91.0895 16.628 90.9535 16.644C90.8735 16.66 90.7975 16.66 90.7255 16.644C90.6615 16.628 90.6015 16.616 90.5455 16.608C90.4975 16.608 90.4695 16.656 90.4615 16.752C90.3015 16.96 90.0575 17.064 89.7295 17.064C89.4095 17.064 89.1375 16.964 88.9135 16.764C88.6655 16.556 88.5775 16.312 88.6495 16.032C88.7295 15.744 88.8175 15.452 88.9135 15.156C89.0095 14.852 89.1135 14.54 89.2255 14.22C89.4175 13.66 89.6295 13.076 89.8615 12.468C89.6935 12.66 89.4655 13.024 89.1775 13.56C88.8895 14.088 88.7095 14.404 88.6375 14.508C88.5015 14.78 88.3895 14.996 88.3015 15.156C88.2135 15.308 88.0935 15.432 87.9415 15.528C87.7975 15.616 87.6615 15.672 87.5335 15.696C87.4135 15.72 87.2975 15.724 87.1855 15.708C86.9215 15.668 86.7335 15.556 86.6215 15.372C86.5975 15.308 86.5735 15.244 86.5495 15.18C86.5255 15.116 86.5055 15.028 86.4895 14.916C86.4655 14.668 86.4975 14.264 86.5855 13.704L86.5615 13.74C86.6575 13.644 86.6895 13.62 86.6575 13.668C86.3375 14.124 86.1455 14.416 86.0815 14.544C86.0175 14.672 85.9495 14.816 85.8775 14.976C85.8055 15.128 85.7215 15.308 85.6255 15.516C85.5295 15.716 85.4535 15.896 85.3975 16.056C85.3415 16.216 85.2735 16.372 85.1935 16.524C84.8335 17.148 84.2015 17.4 83.2975 17.28C83.1055 17.256 82.9415 17.208 82.8055 17.136C82.6695 17.072 82.6135 16.972 82.6375 16.836C82.7015 16.516 82.8495 15.984 83.0815 15.24C83.5375 13.768 83.8095 12.82 83.8975 12.396C83.9535 12.252 84.0015 12.104 84.0415 11.952C84.0895 11.8 84.1375 11.668 84.1855 11.556C84.2815 11.292 84.4215 11.2 84.6055 11.28ZM88.7695 14.244V14.268C88.7855 14.236 88.7855 14.228 88.7695 14.244ZM97.6327 11.352L97.6807 11.364C97.6967 11.364 97.7047 11.368 97.7047 11.376C97.9127 11.296 98.0847 11.356 98.2207 11.556C98.3087 11.692 98.3767 11.9 98.4247 12.18C98.4407 12.564 98.4007 13.096 98.3047 13.776C98.1207 15.152 98.0207 15.972 98.0047 16.236C98.0207 16.516 97.8487 16.708 97.4887 16.812C97.1767 16.908 96.8647 16.904 96.5527 16.8C96.2247 16.688 96.0887 16.516 96.1447 16.284C96.0807 16.404 96.0167 16.488 95.9527 16.536C95.8887 16.592 95.7607 16.664 95.5687 16.752C95.3847 16.848 95.1207 16.924 94.7767 16.98C94.4327 17.044 94.0887 17.06 93.7447 17.028C93.4007 17.004 93.0847 16.92 92.7967 16.776C92.5167 16.64 92.3287 16.424 92.2327 16.128C92.0487 15.552 92.0727 14.82 92.3047 13.932C92.4647 13.348 92.7527 12.832 93.1687 12.384C93.6487 11.872 94.1927 11.448 94.8007 11.112C95.2567 10.864 95.6967 10.716 96.1207 10.668C96.2647 10.652 96.3887 10.656 96.4927 10.68C96.6047 10.704 96.7207 10.728 96.8407 10.752C96.9687 10.776 97.0887 10.812 97.2007 10.86C97.4887 10.98 97.6327 11.144 97.6327 11.352ZM95.4127 14.532C95.4687 14.42 95.5127 14.28 95.5447 14.112C95.5847 13.944 95.6367 13.76 95.7007 13.56C95.0527 13.824 94.5567 14.148 94.2127 14.532C93.8367 14.956 93.8607 15.248 94.2847 15.408C94.6527 15.504 94.9207 15.444 95.0887 15.228C95.1607 15.132 95.2247 15.012 95.2807 14.868C95.3367 14.724 95.4047 14.576 95.4847 14.424C95.4607 14.464 95.4367 14.5 95.4127 14.532ZM101.822 7.524L101.834 7.476L101.942 7.368C102.03 7.16 102.126 7.036 102.23 6.996C102.286 6.98 102.358 6.96 102.446 6.936C102.534 6.912 102.65 6.852 102.794 6.756C102.85 6.644 102.966 6.596 103.142 6.612C103.318 6.62 103.49 6.676 103.658 6.78C103.834 6.876 103.974 7.012 104.078 7.188C104.19 7.364 104.218 7.548 104.162 7.74C104.106 7.924 104.058 8.064 104.018 8.16C103.986 8.248 103.95 8.332 103.91 8.412C103.878 8.492 103.834 8.584 103.778 8.688C103.73 8.784 103.666 8.916 103.586 9.084L103.19 9.912C103.15 10.016 103.114 10.076 103.082 10.092C103.058 10.108 103.034 10.136 103.01 10.176C103.082 10.16 103.142 10.148 103.19 10.14C103.238 10.132 103.286 10.124 103.334 10.116C103.446 10.1 103.574 10.084 103.718 10.068C103.806 10.084 103.882 10.092 103.946 10.092H104.114C104.21 10.092 104.326 10.12 104.462 10.176C104.598 10.224 104.686 10.312 104.726 10.44C104.766 10.568 104.77 10.7 104.738 10.836C104.706 10.964 104.642 11.084 104.546 11.196C104.45 11.308 104.326 11.368 104.174 11.376C103.478 11.568 102.982 11.672 102.686 11.688L102.614 11.772V11.784C102.534 11.976 102.446 12.22 102.35 12.516C102.262 12.804 102.162 13.12 102.05 13.464C101.946 13.8 101.838 14.152 101.726 14.52C101.614 14.88 101.498 15.228 101.378 15.564C100.994 16.692 100.714 17.304 100.538 17.4C100.474 17.432 100.406 17.452 100.334 17.46C100.27 17.476 100.234 17.488 100.226 17.496C99.9463 17.48 99.7143 17.424 99.5303 17.328C99.3463 17.232 99.2223 17.14 99.1583 17.052C99.0943 16.964 99.0783 16.864 99.1103 16.752C99.2623 15.36 99.5663 13.836 100.022 12.18C99.8623 12.18 99.7503 12.196 99.6863 12.228C99.5663 12.292 99.4223 12.328 99.2543 12.336H99.2423C99.1143 12.328 98.9983 12.268 98.8943 12.156C98.7903 12.044 98.7263 11.916 98.7023 11.772C98.6783 11.628 98.7023 11.48 98.7743 11.328C98.8463 11.176 98.9903 11.056 99.2063 10.968C99.4623 10.896 99.6503 10.836 99.7703 10.788C100.002 10.692 100.194 10.624 100.346 10.584C100.506 10.544 100.594 10.52 100.61 10.512C100.634 10.496 100.65 10.484 100.658 10.476C100.682 10.46 100.742 10.452 100.838 10.452C100.886 10.22 100.934 9.984 100.982 9.744C101.03 9.504 101.09 9.26 101.162 9.012C101.322 8.436 101.542 7.94 101.822 7.524ZM107.985 14.724C107.833 14.796 107.685 14.852 107.541 14.892C107.397 14.932 107.229 14.972 107.037 15.012C106.533 15.116 106.169 15.176 105.945 15.192C105.969 15.272 106.089 15.368 106.305 15.48C106.449 15.504 106.605 15.484 106.773 15.42C106.949 15.348 107.129 15.284 107.313 15.228C107.505 15.164 107.689 15.128 107.865 15.12C108.049 15.112 108.221 15.18 108.381 15.324C108.445 15.468 108.497 15.552 108.537 15.576C108.577 15.6 108.613 15.612 108.645 15.612C108.677 15.612 108.713 15.624 108.753 15.648C108.793 15.672 108.849 15.764 108.921 15.924C109.001 16.084 108.981 16.236 108.861 16.38C108.749 16.524 108.573 16.648 108.333 16.752C108.093 16.856 107.813 16.94 107.493 17.004C107.173 17.068 106.853 17.112 106.533 17.136C105.813 17.192 105.265 17.136 104.889 16.968C104.345 16.784 103.993 16.42 103.833 15.876C103.625 15.156 103.741 14.316 104.181 13.356C104.381 12.908 104.697 12.428 105.129 11.916C105.505 11.468 105.925 11.144 106.389 10.944C106.925 10.712 107.485 10.604 108.069 10.62C108.693 10.636 109.125 10.908 109.365 11.436C109.485 11.716 109.509 12.108 109.437 12.612C109.309 13.268 109.141 13.732 108.933 14.004C108.725 14.268 108.409 14.508 107.985 14.724ZM107.289 12.828C106.865 12.74 106.533 12.98 106.293 13.548C106.221 13.7 106.165 13.86 106.125 14.028C106.397 14.06 106.685 13.908 106.989 13.572C107.101 13.436 107.185 13.3 107.241 13.164C107.297 13.02 107.313 12.908 107.289 12.828Z" fill="black" fill-opacity="0.74"/>
<defs>
<clipPath id="clip0_70_7">
<rect width="24" height="24" fill="white"/>
</clipPath>
</defs>
</svg>
